
        <svg xmlns="http://www.w3.org/2000/svg" xmlns:xlink="http://www.w3.org/1999/xlink" version="1.1" width="3172.82391673408" 
        height="2374.3823668251534" viewBox="0 0 3172.82391673408 2374.3823668251534">
			<rect fill="#122d42" width="3172.82391673408" height="2374.3823668251534"/>
			<g transform="scale(8.641195836703982) translate(10, 10)">
				<defs id="SvgjsDefs2241"></defs><g id="SvgjsG2242" featureKey="monogramFeature-0" transform="matrix(3.8763996050684377,0,0,3.8763996050684377,85.00001478729098,-69.54260359150302)" fill="#3dd2cc"><path d="M41.22 39 c2.88 2.1 4.68 5.46 4.68 9.3 c0 6.48 -5.22 11.7 -11.7 11.7 l-34.2 0 l0 -23.4 l13.98 0 l0 0.06 l0 9.3 l20.22 0 c1.26 0.06 2.22 1.08 2.22 2.34 s-0.96 2.28 -2.22 2.34 l-24.84 0 l0 -9.36 l-4.68 0 l0 14.04 l29.52 0 l0.06 0 c3.84 0 6.96 -3.12 6.96 -7.02 c0 -3.66 -2.94 -6.78 -6.6 -6.96 l-15.96 0 l0 -4.68 l15.78 0 c3.78 -0.18 6.78 -3.18 6.78 -7.02 c0 -3.9 -3.12 -7.02 -6.96 -7.02 l-0.06 0 l-29.52 0 l0 4.68 l29.52 0 c1.26 0.06 2.22 1.08 2.22 2.34 s-0.96 2.28 -2.22 2.34 l-34.2 0 l0 -14.04 l34.2 0 c6.48 0 11.7 5.22 11.7 11.7 c0 3.84 -1.8 7.2 -4.68 9.36 z"></path></g><g id="SvgjsG2243" featureKey="nameFeature-0" transform="matrix(1.7426059829050016,0,0,1.7426059829050016,-4.321662039902691,165.6436460056696)" fill="#3dd2cc"><path d="M20.4 40 l-17.92 0 l0 -30.04 l17.92 0 c3.96 0 7.16 3.2 7.16 7.12 l0 3.24 c0 1.76 -0.64 3.4 -1.72 4.64 c1.08 1.28 1.72 2.88 1.72 4.68 l0 3.2 c0 3.96 -3.2 7.16 -7.16 7.16 z M7.44 35.04 l12.96 0 c1.2 0 2.2 -1 2.2 -2.2 l0 -3.2 c0 -1.2 -1 -2.2 -2.2 -2.2 l-7.92 0 l0 -4.96 l7.92 0 c1.2 0 2.2 -0.96 2.2 -2.16 l0 -3.24 c0 -1.2 -1 -2.16 -2.2 -2.16 l-12.96 0 l0 20.12 z M37.941 40 l-4.96 0 l0 -30.04 l4.96 0 l0 30.04 z M68.962 40 l-4.96 0 l0 -22.92 c0 -1.2 -1 -2.16 -2.2 -2.16 l-12.96 0 l0 25.08 l-4.96 0 l0 -30.04 l17.92 0 c3.96 0 7.16 3.2 7.16 7.12 l0 22.92 z M92.343 9.96 c3.96 0 7.16 3.2 7.16 7.12 l0 22.92 l-4.96 0 l0 -12.56 l-15.16 0 l0 12.56 l-4.96 0 l0 -22.92 c0 -3.92 3.2 -7.12 7.16 -7.12 l10.76 0 z M79.38300000000001 22.48 l15.16 0 l0 -5.4 c0 -1.2 -1 -2.16 -2.2 -2.16 l-10.76 0 c-1.2 0 -2.2 0.96 -2.2 2.16 l0 5.4 z M130.28400000000002 20.32 c0 3.92 -3.2 7.12 -7.16 7.12 l-1.8 0 l8.92 12.56 l-6.08 0 l-8.96 -12.52 l0 -0.04 l0 0 l0 -4.96 l7.92 0 c1.2 0 2.2 -0.96 2.2 -2.16 l0 -3.24 c0 -1.2 -1 -2.16 -2.2 -2.16 l-12.96 0 l0 25.08 l-0.12 0 l-4.84 0 l0 -30.04 l17.92 0 c3.96 0 7.16 3.2 7.16 7.12 l0 3.24 z M140.46500000000003 40 l-4.96 0 l0 -30.04 l4.96 0 l0 30.04 z M163.92600000000004 40 l-10.76 0 c-3.96 0 -7.16 -3.2 -7.16 -7.16 l0 -15.76 c0 -3.92 3.2 -7.12 7.16 -7.12 l10.76 0 c3.96 0 7.16 3.2 7.16 7.12 l0 15.76 c0 3.96 -3.2 7.16 -7.16 7.16 z M153.16600000000005 14.920000000000002 c-1.2 0 -2.2 0.96 -2.2 2.16 l0 15.76 c0 1.2 1 2.2 2.2 2.2 l10.76 0 c1.2 0 2.2 -1 2.2 -2.2 l0 -15.76 c0 -1.2 -1 -2.16 -2.2 -2.16 l-10.76 0 z M201.70700000000005 40 l-4.96 0 l0 -22.92 c0 -1.2 -1 -2.16 -2.2 -2.16 l-12.96 0 l0 25.08 l-4.96 0 l0 -30.04 l17.92 0 c3.96 0 7.16 3.2 7.16 7.12 l0 22.92 z"></path></g><g id="SvgjsG2244" featureKey="sloganFeature-0" transform="matrix(0.650781733949507,0,0,0.650781733949507,34.19303079885473,241.7591072628357)" fill="#3dd2cc"><path d="M10.2 20 l-8.96 0 l0 -15.02 l8.96 0 c1.98 0 3.58 1.6 3.58 3.56 l0 7.88 c0 1.98 -1.6 3.58 -3.58 3.58 z M3.72 17.52 l6.48 0 c0.6 0 1.1 -0.5 1.1 -1.1 l0 -7.88 c0 -0.6 -0.5 -1.08 -1.1 -1.08 l-6.48 0 l0 10.06 z M21.973499999999998 20 l-2.48 0 l0 -15.02 l2.48 0 l0 15.02 z M37.747 14.96 l2.48 0 l0 1.46 c0 1.98 -1.6 3.58 -3.58 3.58 l-5.38 0 c-1.98 0 -3.58 -1.6 -3.58 -3.58 l0 -7.88 c0 -1.96 1.6 -3.56 3.58 -3.56 l7.72 0 l0 2.48 l-7.72 0 c-0.6 0 -1.1 0.48 -1.1 1.08 l0 2.7 l7.58 0 l0 2.48 l-7.58 0 l0 2.7 c0 0.6 0.5 1.1 1.1 1.1 l5.38 0 c0.6 0 1.1 -0.5 1.1 -1.1 l0 -1.46 z M62.31399999999999 17.52 l2.8 0 l0 2.48 l-2.8 0 l-2.52 0 l-3.82 0 l0 -2.48 l3.82 0 l0 -9.32 l-2.74 2.26 l-1.58 -1.92 l4.32 -3.56 l0 0 l0.04 0 l2.46 0 l0.02 0 l0 12.54 z M83.60099999999998 20 l-2.48 0 l0 -15.02 l2.48 0 l0 15.02 z M103.19449999999999 4.98 c1.98 0 3.58 1.6 3.58 3.56 l0 11.46 l-2.48 0 l0 -11.46 c0 -0.6 -0.5 -1.08 -1.1 -1.08 l-2.78 0 c-0.6 0 -1.08 0.48 -1.08 1.08 l0 8.98 l-2.5 0 l0 -8.98 c0 -0.6 -0.48 -1.08 -1.08 -1.08 l-2.78 0 c-0.6 0 -1.1 0.48 -1.1 1.08 l0 11.46 l-2.48 0 l0 -11.46 c0 -1.96 1.6 -3.56 3.58 -3.56 l2.78 0 c0.88 0 1.7 0.32 2.34 0.86 c0.62 -0.54 1.44 -0.86 2.32 -0.86 l2.78 0 z M132.1615 20 l-8.96 0 l0 -15.02 l8.96 0 c1.98 0 3.58 1.6 3.58 3.56 l0 7.88 c0 1.98 -1.6 3.58 -3.58 3.58 z M125.68149999999999 17.52 l6.48 0 c0.6 0 1.1 -0.5 1.1 -1.1 l0 -7.88 c0 -0.6 -0.5 -1.08 -1.1 -1.08 l-6.48 0 l0 10.06 z M143.93499999999997 20 l-2.48 0 l0 -15.02 l2.48 0 l0 15.02 z M159.70849999999996 11.24 l2.48 0 l0 5.18 c0 1.98 -1.6 3.58 -3.58 3.58 l-5.38 0 c-1.98 0 -3.58 -1.6 -3.58 -3.58 l0 -7.88 c0 -1.96 1.6 -3.56 3.58 -3.56 l7.72 0 l0 2.48 l-7.72 0 c-0.6 0 -1.1 0.48 -1.1 1.08 l0 7.88 c0 0.6 0.5 1.1 1.1 1.1 l5.38 0 c0.6 0 1.1 -0.5 1.1 -1.1 l0 -5.18 z M170.36199999999997 20 l-2.48 0 l0 -15.02 l2.48 0 l0 15.02 z M187.11549999999997 4.98 l0 2.48 l-4.44 0 l0 12.54 l-2.48 0 l0 -12.54 l-4.44 0 l0 -2.48 l11.36 0 z M201.34899999999996 4.98 c1.98 0 3.58 1.6 3.58 3.56 l0 11.46 l-2.48 0 l0 -6.28 l-7.58 0 l0 6.28 l-2.48 0 l0 -11.46 c0 -1.96 1.6 -3.56 3.58 -3.56 l5.38 0 z M194.86899999999994 11.24 l7.58 0 l0 -2.7 c0 -0.6 -0.5 -1.08 -1.1 -1.08 l-5.38 0 c-0.6 0 -1.1 0.48 -1.1 1.08 l0 2.7 z M219.48249999999996 14.96 l2.48 0 l0 1.46 c0 1.98 -1.6 3.58 -3.58 3.58 l-4.2 0 c-1.98 0 -3.58 -1.6 -3.58 -3.58 l0 -11.44 l2.48 0 l0 11.44 c0 0.6 0.5 1.1 1.1 1.1 l4.2 0 c0.6 0 1.1 -0.5 1.1 -1.1 l0 -1.46 z M237.09599999999995 14.96 l2.48 0 l0 1.46 c0 1.98 -1.6 3.58 -3.58 3.58 l-5.38 0 c-1.98 0 -3.58 -1.6 -3.58 -3.58 l0 -7.88 c0 -1.96 1.6 -3.56 3.58 -3.56 l7.72 0 l0 2.48 l-7.72 0 c-0.6 0 -1.1 0.48 -1.1 1.08 l0 2.7 l7.58 0 l0 2.48 l-7.58 0 l0 2.7 c0 0.6 0.5 1.1 1.1 1.1 l5.38 0 c0.6 0 1.1 -0.5 1.1 -1.1 l0 -1.46 z M257.6694999999999 20 l-2.48 0 l0 -11.46 c0 -0.6 -0.5 -1.08 -1.1 -1.08 l-6.48 0 l0 12.54 l-2.48 0 l0 -15.02 l8.96 0 c1.98 0 3.58 1.6 3.58 3.56 l0 11.46 z M286.63649999999996 10.16 c0 1.96 -1.6 3.56 -3.58 3.56 l-0.9 0 l4.46 6.28 l-3.04 0 l-4.48 -6.26 l0 -0.02 l0 0 l0 -2.48 l3.96 0 c0.6 0 1.1 -0.48 1.1 -1.08 l0 -1.62 c0 -0.6 -0.5 -1.08 -1.1 -1.08 l-6.48 0 l0 12.54 l-0.06 0 l-2.42 0 l0 -15.02 l8.96 0 c1.98 0 3.58 1.6 3.58 3.56 l0 1.62 z M302.05 14.96 l2.48 0 l0 1.46 c0 1.98 -1.6 3.58 -3.58 3.58 l-5.38 0 c-1.98 0 -3.58 -1.6 -3.58 -3.58 l0 -7.88 c0 -1.96 1.6 -3.56 3.58 -3.56 l7.72 0 l0 2.48 l-7.72 0 c-0.6 0 -1.1 0.48 -1.1 1.08 l0 2.7 l7.58 0 l0 2.48 l-7.58 0 l0 2.7 c0 0.6 0.5 1.1 1.1 1.1 l5.38 0 c0.6 0 1.1 -0.5 1.1 -1.1 l0 -1.46 z M321.1835 20 l-7.72 0 c-1.98 0 -3.58 -1.6 -3.58 -3.58 l0 -7.88 c0 -1.96 1.6 -3.56 3.58 -3.56 l5.38 0 c1.98 0 3.58 1.6 3.58 3.56 l0 1.48 l-2.48 0 l0 -1.48 c0 -0.6 -0.5 -1.08 -1.1 -1.08 l-5.38 0 c-0.6 0 -1.1 0.48 -1.1 1.08 l0 7.88 c0 0.6 0.5 1.1 1.1 1.1 l7.72 0 l0 2.48 z M340.55699999999996 10.16 c0 1.96 -1.6 3.56 -3.58 3.56 l-0.9 0 l4.46 6.28 l-3.04 0 l-4.48 -6.26 l0 -0.02 l0 0 l0 -2.48 l3.96 0 c0.6 0 1.1 -0.48 1.1 -1.08 l0 -1.62 c0 -0.6 -0.5 -1.08 -1.1 -1.08 l-6.48 0 l0 12.54 l-0.06 0 l-2.42 0 l0 -15.02 l8.96 0 c1.98 0 3.58 1.6 3.58 3.56 l0 1.62 z M354.9505 20 l-5.38 0 c-1.98 0 -3.58 -1.6 -3.58 -3.58 l0 -11.44 l2.48 0 l0 11.44 c0 0.6 0.5 1.1 1.1 1.1 l5.38 0 c0.6 0 1.1 -0.5 1.1 -1.1 l0 -11.44 l2.48 0 l0 11.44 c0 1.98 -1.6 3.58 -3.58 3.58 z M366.80400000000003 20 l-2.48 0 l0 -15.02 l2.48 0 l0 15.02 z M383.5575 4.98 l0 2.48 l-4.44 0 l0 12.54 l-2.48 0 l0 -12.54 l-4.44 0 l0 -2.48 l11.36 0 z M391.43100000000004 20 l-2.48 0 l0 -15.02 l2.48 0 l0 15.02 z M409.8845 20 l-2.48 0 l0 -11.46 c0 -0.6 -0.5 -1.08 -1.1 -1.08 l-6.48 0 l0 12.54 l-2.48 0 l0 -15.02 l8.96 0 c1.98 0 3.58 1.6 3.58 3.56 l0 11.46 z M425.53800000000007 11.24 l2.48 0 l0 5.18 c0 1.98 -1.6 3.58 -3.58 3.58 l-5.38 0 c-1.98 0 -3.58 -1.6 -3.58 -3.58 l0 -7.88 c0 -1.96 1.6 -3.56 3.58 -3.56 l7.72 0 l0 2.48 l-7.72 0 c-0.6 0 -1.1 0.48 -1.1 1.08 l0 7.88 c0 0.6 0.5 1.1 1.1 1.1 l5.38 0 c0.6 0 1.1 -0.5 1.1 -1.1 l0 -5.18 z"></path></g>
			</g>
		</svg>
	